HIERARCHY
ROOT hip
{
  OFFSET 0 0 0
  CHANNELS 6 Xposition Yposition Zposition Zrotation Yrotation Xrotation
  JOINT abdomen
  {
    OFFSET 0 20.6881 -0.73152
    CHANNELS 3 Zrotation Xrotation Yrotation
    JOINT chest
    {
      OFFSET 0 11.7043 -0.48768
      CHANNELS 3 Zrotation Xrotation Yrotation
      JOINT neck
      {
        OFFSET 0 22.1894 -2.19456
        CHANNELS 3 Zrotation Xrotation Yrotation
        JOINT head
        {
          OFFSET -0.24384 7.07133 1.2192
          CHANNELS 3 Zrotation Xrotation Yrotation
          JOINT leftEye
          {
            OFFSET 4.14528 8.04674 8.04672
            CHANNELS 3 Zrotation Xrotation Yrotation
            End Site
            {
              OFFSET 1 0 0
            }
          }
          JOINT rightEye
          {
            OFFSET -3.6576 8.04674 8.04672
            CHANNELS 3 Zrotation Xrotation Yrotation
            End Site
            {
              OFFSET 1 0 0
            }
          }
        }
      }
      JOINT rCollar
      {
        OFFSET -2.68224 19.2634 -4.8768
        CHANNELS 3 Zrotation Xrotation Yrotation
        JOINT rShldr
        {
          OFFSET -8.77824 -1.95073 1.46304
          CHANNELS 3 Zrotation Xrotation Yrotation
          JOINT rForeArm
          {
            OFFSET -28.1742 -1.7115 0.48768
            CHANNELS 3 Zrotation Xrotation Yrotation
            JOINT rHand
            {
              OFFSET -22.5879 0.773209 7.07136
              CHANNELS 3 Zrotation Xrotation Yrotation
              JOINT rThumb1
              {
                OFFSET -1.2192 -0.487915 3.41376
                CHANNELS 3 Zrotation Xrotation Yrotation
                JOINT rThumb2
                {
                  OFFSET -3.37035 -0.52449 3.41376
                  CHANNELS 3 Zrotation Xrotation Yrotation
                  End Site
                  {
                    OFFSET -1.78271 -1.18214 1.43049
                  }
                }
              }
              JOINT rIndex1
              {
                OFFSET -7.75947 0.938293 5.60832
                CHANNELS 3 Zrotation Xrotation Yrotation
                JOINT rIndex2
                {
                  OFFSET -2.54057 -0.884171 1.56538
                  CHANNELS 3 Zrotation Xrotation Yrotation
                  End Site
                  {
                    OFFSET -1.62519 -0.234802 1.16502
                  }
                }
              }
              JOINT rMid1
              {
                OFFSET -8.24714 1.18213 3.41376
                CHANNELS 3 Zrotation Xrotation Yrotation
                JOINT rMid2
                {
                  OFFSET -3.10165 -0.590103 1.0647
                  CHANNELS 3 Zrotation Xrotation Yrotation
                  End Site
                  {
                    OFFSET -2.48547 -0.328903 0.83742
                  }
                }
              }
              JOINT rRing1
              {
                OFFSET -8.82822 0.546677 1.51678
                CHANNELS 3 Zrotation Xrotation Yrotation
                JOINT rRing2
                {
                  OFFSET -2.60934 -0.819778 -0.0198488
                  CHANNELS 3 Zrotation Xrotation Yrotation
                  End Site
                  {
                    OFFSET -2.33842 -0.294052 0.168128
                  }
                }
              }
              JOINT rPinky1
              {
                OFFSET -8.27202 -0.0477905 -0.4584
                CHANNELS 3 Zrotation Xrotation Yrotation
                JOINT rPinky2
                {
                  OFFSET -1.82734 -0.647385 -0.700984
                  CHANNELS 3 Zrotation Xrotation Yrotation
                  End Site
                  {
                    OFFSET -1.69225 -0.51767 -0.607171
                  }
                }
              }
            }
          }
        }
      }
      JOINT lCollar
      {
        OFFSET 2.68224 19.2634 -4.8768
        CHANNELS 3 Zrotation Xrotation Yrotation
        JOINT lShldr
        {
          OFFSET 8.77824 -1.95073 1.46304
          CHANNELS 3 Zrotation Xrotation Yrotation
          JOINT lForeArm
          {
            OFFSET 28.1742 -1.7115 0.48768
            CHANNELS 3 Zrotation Xrotation Yrotation
            JOINT lHand
            {
              OFFSET 22.5879 0.773209 7.07136
              CHANNELS 3 Zrotation Xrotation Yrotation
              JOINT lThumb1
              {
                OFFSET 1.2192 -0.487915 3.41376
                CHANNELS 3 Zrotation Xrotation Yrotation
                JOINT lThumb2
                {
                  OFFSET 3.37035 -0.52449 3.41376
                  CHANNELS 3 Zrotation Xrotation Yrotation
                  End Site
                  {
                    OFFSET 1.78271 -1.18214 1.43049
                  }
                }
              }
              JOINT lIndex1
              {
                OFFSET 7.75947 0.938293 5.60832
                CHANNELS 3 Zrotation Xrotation Yrotation
                JOINT lIndex2
                {
                  OFFSET 2.54057 -0.884171 1.56538
                  CHANNELS 3 Zrotation Xrotation Yrotation
                  End Site
                  {
                    OFFSET 1.62519 -0.234802 1.16502
                  }
                }
              }
              JOINT lMid1
              {
                OFFSET 8.24714 1.18213 3.41376
                CHANNELS 3 Zrotation Xrotation Yrotation
                JOINT lMid2
                {
                  OFFSET 3.10165 -0.590103 1.0647
                  CHANNELS 3 Zrotation Xrotation Yrotation
                  End Site
                  {
                    OFFSET 2.48547 -0.328903 0.83742
                  }
                }
              }
              JOINT lRing1
              {
                OFFSET 8.82822 0.546677 1.51678
                CHANNELS 3 Zrotation Xrotation Yrotation
                JOINT lRing2
                {
                  OFFSET 2.60934 -0.819778 -0.0198488
                  CHANNELS 3 Zrotation Xrotation Yrotation
                  End Site
                  {
                    OFFSET 2.33842 -0.294052 0.168128
                  }
                }
              }
              JOINT lPinky1
              {
                OFFSET 8.27202 -0.0477905 -0.4584
                CHANNELS 3 Zrotation Xrotation Yrotation
                JOINT lPinky2
                {
                  OFFSET 1.82734 -0.647385 -0.700984
                  CHANNELS 3 Zrotation Xrotation Yrotation
                  End Site
                  {
                    OFFSET 1.69225 -0.51767 -0.607171
                  }
                }
              }
            }
          }
        }
      }
    }
  }
  JOINT rButtock
  {
    OFFSET -8.77824 4.35084 1.2192
    CHANNELS 3 Zrotation Xrotation Yrotation
    JOINT rThigh
    {
      OFFSET 0 -1.70687 -2.19456
      CHANNELS 3 Zrotation Xrotation Yrotation
      JOINT rShin
      {
        OFFSET 0 -36.8199 0.73152
        CHANNELS 3 Zrotation Xrotation Yrotation
        JOINT rFoot
        {
          OFFSET 0.73152 -45.1104 -5.12064
          CHANNELS 3 Zrotation Xrotation Yrotation
          End Site
          {
            OFFSET -1.1221 -3.69964 12.103
          }
        }
      }
    }
  }
  JOINT lButtock
  {
    OFFSET 8.77824 4.35084 1.2192
    CHANNELS 3 Zrotation Xrotation Yrotation
    JOINT lThigh
    {
      OFFSET 0 -1.70687 -2.19456
      CHANNELS 3 Zrotation Xrotation Yrotation
      JOINT lShin
      {
        OFFSET 0 -36.8199 0.73152
        CHANNELS 3 Zrotation Xrotation Yrotation
        JOINT lFoot
        {
          OFFSET -0.73152 -45.1104 -5.12064
          CHANNELS 3 Zrotation Xrotation Yrotation
          End Site
          {
            OFFSET 1.1221 -3.69964 12.103
          }
        }
      }
    }
  }
}
MOTION
Frames:	6
Frame Time:	0.00833333
53.6903 67.8888 185.784 178.913 0.4482 -133.571 -6.37142 -13.9249 -0.971306 2.74592 3.89923 -0.406373 2.30045 11.9508 -1.92882 -1.9834 -56.5151 -9.80986 -0.0 0.0 0.0 -0.0 0.0 0.0 9.35145e-14 4.73905e-13 1.29856e-13 79.9613 17.1253 -2.25517 -15.638 -8.35509 28.9119 -0.000420375 0.585446 0.082282 -2.03213e-09 4.84715e-09 -6.38204e-09 -3.53264e-09 8.37107e-09 -1.10296e-08 -2.03212e-09 4.84715e-09 -6.38206e-09 7.73091 5.47488 0.417314 -2.03213e-09 4.84715e-09 -6.38205e-09 2.90554 0.965183 0.102902 -2.03212e-09 4.84715e-09 -6.38204e-09 10.2786 0.731801 0.0259123 -2.03213e-09 4.84715e-09 -6.38203e-09 2.22167 -0.733487 -0.20892 9.33493e-14 4.739e-13 1.29707e-13 -67.4339 28.4677 -2.93551 12.1993 -5.5893 -21.9961 0.00902127 2.71084 -0.381271 -4.84157e-09 1.38008e-09 8.1191e-09 -8.32994e-09 2.37626e-09 1.40448e-08 -4.84157e-09 1.38008e-09 8.11911e-09 -7.73091 5.47488 -0.417314 -4.84156e-09 1.38008e-09 8.1191e-09 -2.90554 0.965183 -0.102902 -4.84157e-09 1.38008e-09 8.11909e-09 -10.2786 0.731801 -0.0259123 -4.84156e-09 1.38008e-09 8.11908e-09 -2.22167 -0.733487 0.20892 -2.03217e-16 0.0 -3.88251e-19 35.628 -77.1499 40.2926 -1.21682 65.3557 2.67294 -14.1834 -37.6854 -19.6062 2.03217e-16 0.0 3.88251e-19 -27.0741 -79.1619 -31.7415 1.87226 68.3381 -2.15376 -2.51451 -24.208 -5.66852
53.7121 67.2775 185.46 178.915 0.6933 -133.656 -6.39194 -13.5859 -1.07711 2.70396 3.92899 -0.440466 2.50661 12.2794 -1.86484 -2.75434 -57.3323 -10.4944 -0.0 0.0 0.0 -0.0 0.0 0.0 8.03784e-14 4.30794e-13 1.10878e-13 79.8353 17.1148 -1.40615 -15.3957 -8.13764 28.4072 -0.00110933 0.905135 0.127217 -1.68746e-09 4.36706e-09 -5.53266e-09 -2.93405e-09 7.5424e-09 -9.56106e-09 -1.68745e-09 4.36705e-09 -5.53268e-09 7.73091 5.47488 0.417314 -1.68746e-09 4.36705e-09 -5.53266e-09 2.90554 0.965183 0.102902 -1.68745e-09 4.36706e-09 -5.53266e-09 10.2786 0.731801 0.0259123 -1.68747e-09 4.36706e-09 -5.53266e-09 2.22167 -0.733487 -0.20892 8.02115e-14 4.30788e-13 1.10676e-13 -67.382 27.6374 -3.54295 11.8521 -5.34597 -21.3235 0.0125592 3.1292 -0.440237 -4.23245e-09 1.27554e-09 7.0464e-09 -7.28203e-09 2.1972e-09 1.21879e-08 -4.23245e-09 1.27554e-09 7.04641e-09 -7.73091 5.47488 -0.417314 -4.23244e-09 1.27554e-09 7.0464e-09 -2.90554 0.965183 -0.102902 -4.23245e-09 1.27554e-09 7.04639e-09 -10.2786 0.731801 -0.0259123 -4.23244e-09 1.27554e-09 7.04638e-09 -2.22167 -0.733487 0.20892 -2.03217e-16 0.0 -3.88251e-19 36.8364 -77.447 41.3947 -1.33421 66.755 2.83234 -14.5853 -37.9258 -20.0294 2.03217e-16 0.0 3.88251e-19 -28.7953 -79.464 -33.2882 2.07575 69.7654 -2.3369 -2.82973 -24.4353 -6.23184
53.7096 66.6901 185.886 178.892 1.011 -131.389 -6.39248 -13.2858 -1.21605 2.6101 4.07724 -0.490321 2.53951 12.2746 -1.64146 -2.78203 -57.7595 -10.5378 -0.0 0.0 0.0 -0.0 0.0 0.0 4.62238e-14 3.1627e-13 6.56145e-14 79.7243 17.1079 -0.45068 -15.1571 -7.92807 27.9106 -0.00180806 1.19707 0.168258 -8.69986e-10 3.05905e-09 -3.48275e-09 -1.51453e-09 5.28397e-09 -6.01721e-09 -8.69979e-10 3.05904e-09 -3.48276e-09 7.73091 5.47488 0.417314 -8.69987e-10 3.05904e-09 -3.48275e-09 2.90554 0.965183 0.102902 -8.69979e-10 3.05904e-09 -3.48275e-09 10.2786 0.731801 0.0259123 -8.69992e-10 3.05905e-09 -3.48275e-09 2.22167 -0.733487 -0.20892 4.60837e-14 3.16263e-13 6.53287e-14 -67.2577 26.8651 -4.25701 11.5019 -5.10772 -20.6464 0.0149899 3.44105 -0.484207 -2.70764e-09 9.4659e-10 4.4632e-09 -4.65822e-09 1.63207e-09 7.71719e-09 -2.70764e-09 9.46589e-10 4.46321e-09 -7.73091 5.47488 -0.417314 -2.70764e-09 9.46587e-10 4.4632e-09 -2.90554 0.965183 -0.102902 -2.70764e-09 9.46589e-10 4.46319e-09 -10.2786 0.731801 -0.0259123 -2.70763e-09 9.46588e-10 4.46318e-09 -2.22167 -0.733487 0.20892 -2.03217e-16 0.0 -3.88251e-19 37.3858 -77.7277 41.8118 -1.46138 68.1097 3.00122 -14.9747 -38.0788 -20.4587 2.03217e-16 0.0 3.88251e-19 -30.9131 -79.6177 -35.243 2.30797 71.1723 -2.55082 -3.09508 -24.7207 -6.67578
53.6947 66.1469 185.071 178.776 0.8743 -132.83 -6.4201 -13.082 -1.36569 2.5161 4.21472 -0.529308 2.52234 12.1604 -1.47466 -2.40435 -57.9989 -10.1654 -0.0 0.0 0.0 -0.0 0.0 0.0 8.84184e-15 1.81171e-13 1.39945e-14 79.6282 17.1893 0.451335 -14.9519 -7.75003 27.4871 -0.00245908 1.41944 0.199528 1.95322e-12 1.50736e-09 -1.19291e-09 -1.25733e-13 2.60447e-09 -2.05878e-09 1.95921e-12 1.50736e-09 -1.19292e-09 7.73091 5.47488 0.417314 1.95272e-12 1.50735e-09 -1.19291e-09 2.90554 0.965183 0.102902 1.96004e-12 1.50735e-09 -1.19291e-09 10.2786 0.731801 0.0259123 1.94625e-12 1.50736e-09 -1.19291e-09 2.22167 -0.733487 -0.20892 8.73802e-15 1.81164e-13 1.36311e-14 -67.1546 26.2589 -4.90709 11.1954 -4.90259 -20.0593 0.0166373 3.66826 -0.516252 -9.91022e-10 5.50069e-10 1.54091e-09 -1.70446e-09 9.50407e-10 2.66013e-09 -9.9103e-10 5.50068e-10 1.54092e-09 -7.73091 5.47488 -0.417314 -9.9102e-10 5.50066e-10 1.54091e-09 -2.90554 0.965183 -0.102902 -9.91027e-10 5.50067e-10 1.54091e-09 -10.2786 0.731801 -0.0259123 -9.91018e-10 5.50068e-10 1.5409e-09 -2.22167 -0.733487 0.20892 -2.03217e-16 0.0 -3.88251e-19 37.8619 -77.9911 42.1938 -1.59938 69.4039 3.17923 -15.3417 -38.177 -20.8738 2.03217e-16 0.0 3.88251e-19 -33.0304 -79.726 -37.1899 2.56448 72.5154 -2.79153 -3.31622 -25.0157 -7.02424
53.6243 65.6331 184.367 178.546 0.3432 -133.936 -6.52292 -13.0315 -1.50382 2.47314 4.21216 -0.530749 2.57528 12.1614 -1.57976 -1.98358 -58.2486 -9.62425 -0.0 0.0 0.0 -0.0 0.0 0.0 -1.39759e-14 7.63372e-14 -2.40529e-14 79.5424 17.4462 1.14128 -14.8114 -7.62822 27.2014 -0.00287358 1.53046 0.215143 5.10018e-10 2.96227e-10 3.76247e-10 8.83101e-10 5.12546e-10 6.53443e-10 5.10023e-10 2.96226e-10 3.76237e-10 7.73091 5.47488 0.417314 5.10017e-10 2.96224e-10 3.76253e-10 2.90554 0.965183 0.102902 5.10025e-10 2.96224e-10 3.76245e-10 10.2786 0.731801 0.0259123 5.10011e-10 2.96228e-10 3.76244e-10 2.22167 -0.733487 -0.20892 -1.40536e-14 7.63298e-14 -2.44505e-14 -67.1534 25.9291 -5.32792 10.9819 -4.7598 -19.6563 0.0180499 3.83268 -0.53946 1.93523e-10 2.42826e-10 -5.49053e-10 3.33295e-10 4.21757e-10 -9.55762e-10 1.93514e-10 2.42824e-10 -5.49043e-10 -7.73091 5.47488 -0.417314 1.93524e-10 2.42822e-10 -5.49053e-10 -2.90554 0.965183 -0.102902 1.93519e-10 2.42822e-10 -5.49052e-10 -10.2786 0.731801 -0.0259123 1.93527e-10 2.42825e-10 -5.49059e-10 -2.22167 -0.733487 0.20892 -2.03217e-16 0.0 -3.88251e-19 38.9098 -78.2304 43.2494 -1.74842 70.6215 3.36514 -15.6774 -38.2533 -21.2554 2.03217e-16 0.0 3.88251e-19 -34.8023 -79.9008 -38.7667 2.83636 73.7514 -3.05067 -3.49774 -25.2716 -7.30057
53.5535 65.1878 184.017 178.267 0.8074 -133.791 -6.73997 -13.2281 -1.62433 2.51951 4.00179 -0.470948 2.74485 12.3414 -2.13656 -1.45938 -58.5351 -8.76551 -0.0 0.0 0.0 -0.0 0.0 0.0 -1.36033e-14 1.9782e-14 -4.28897e-14 79.4538 17.8939 1.56658 -14.7297 -7.55591 27.0402 -0.00295843 1.5149 0.212957 4.56761e-10 -4.62009e-10 8.84166e-10 7.92881e-10 -7.98332e-10 1.53045e-09 4.56766e-10 -4.62009e-10 8.84155e-10 7.73091 5.47488 0.417314 4.5676e-10 -4.62011e-10 8.84171e-10 2.90554 0.965183 0.102902 4.56768e-10 -4.6201e-10 8.84163e-10 10.2786 0.731801 0.0259123 4.56754e-10 -4.62008e-10 8.84163e-10 2.22167 -0.733487 -0.20892 -1.36718e-14 1.97764e-14 -4.32531e-14 -67.3018 25.9344 -5.44144 10.8756 -4.68767 -19.4591 0.0190372 3.92294 -0.552213 5.79502e-10 5.29458e-11 -1.44206e-09 9.96103e-10 9.40353e-11 -2.49887e-09 5.79491e-10 5.29451e-11 -1.44205e-09 -7.73091 5.47488 -0.417314 5.79501e-10 5.29437e-11 -1.44206e-09 -2.90554 0.965183 -0.102902 5.79497e-10 5.29434e-11 -1.44205e-09 -10.2786 0.731801 -0.0259123 5.79506e-10 5.29458e-11 -1.44206e-09 -2.22167 -0.733487 0.20892 -2.03217e-16 0.0 -3.88251e-19 41.3224 -78.4937 45.8336 -1.91416 71.8161 3.56535 -15.9799 -38.2991 -21.604 2.03217e-16 0.0 3.88251e-19 -36.435 -80.2923 -40.1757 3.13397 74.9248 -3.34072 -3.61153 -25.4652 -7.45869
